<?xml version="1.0" standalone="no"?>
<!DOCTYPE svg PUBLIC "-//W3C//DTD SVG 20010904//EN"
 "http://www.w3.org/TR/2001/REC-SVG-20010904/DTD/svg10.dtd">
<svg version="1.0" xmlns="http://www.w3.org/2000/svg"
 width="1000.000000pt" height="1000.000000pt" viewBox="0 0 1000.000000 1000.000000"
 preserveAspectRatio="xMidYMid meet">
<metadata>
Created by potrace 1.11, written by Peter Selinger 2001-2013
</metadata>
<g transform="translate(0.000000,1000.000000) scale(0.100000,-0.100000)"
fill="#000000" stroke="none">
<path d="M0 5000 l0 -5000 5000 0 5000 0 0 5000 0 5000 -5000 0 -5000 0 0
-5000z m5360 2840 c710 -50 1206 -232 1695 -622 l114 -92 -22 -28 c-81 -103
-734 -867 -740 -867 -5 -1 -37 24 -70 55 -76 69 -244 182 -346 233 -165 83
-365 144 -581 178 -165 25 -570 25 -725 -1 -411 -68 -635 -237 -652 -492 -10
-151 30 -259 135 -363 97 -97 210 -155 404 -206 138 -36 255 -53 533 -75 286
-23 519 -50 685 -80 850 -154 1352 -510 1549 -1098 62 -186 76 -289 76 -572 0
-228 -3 -266 -23 -357 -78 -356 -252 -655 -517 -892 -345 -308 -807 -491
-1420 -563 -143 -17 -725 -17 -900 0 -826 80 -1400 334 -1970 874 -78 74 -88
88 -80 105 6 12 156 232 335 491 l325 470 70 -66 c337 -314 912 -570 1513
-674 174 -30 504 -32 632 -4 118 25 258 77 349 128 107 61 248 201 289 288 94
201 59 418 -88 553 -145 133 -410 205 -890 242 -780 60 -1321 217 -1732 505
-114 79 -306 269 -375 371 -103 151 -175 318 -215 504 -25 116 -36 430 -19
560 64 481 339 871 801 1137 335 192 773 319 1237 357 144 12 457 12 623 1z"/>
</g>
</svg>
