<?xml version="1.0" encoding="utf-8"?>
<!-- Generator: Adobe Illustrator 20.0.0, SVG Export Plug-In . SVG Version: 6.00 Build 0)  -->
<svg version="1.1" id="Layer_1" xmlns="http://www.w3.org/2000/svg" xmlns:xlink="http://www.w3.org/1999/xlink" x="0px" y="0px"
	 viewBox="0 0 64 64" style="enable-background:new 0 0 64 64;" xml:space="preserve">
<style type="text/css">
	.st0{fill:none;stroke:#000000;stroke-width:2;stroke-miterlimit:10;}
</style>
<g>
	<path class="st0" d="M1,13c0-1.6,1.3-3,3-3h56c1.7,0,3,1.4,3,3v35c0,1.7-1.3,3-3,3H4c-1.7,0-3-1.3-3-3V13z"/>
</g>
<line class="st0" x1="32" y1="63" x2="32" y2="51"/>
<line class="st0" x1="1" y1="43" x2="64" y2="43"/>
<g>
	<path d="M42,63c0,0.5-0.5,1-1,1H23c-0.5,0-1-0.5-1-1l0,0c0-0.5,0.5-1,1-1h18C41.5,62,42,62.5,42,63L42,63z"/>
</g>
<g>
	<path d="M18.6,26.8c0-0.4,0.4-1,1-1.3l7.1-3.3c0.5-0.3,1,0,1,0.5s-0.5,1.2-1,1.4l-4.9,2.1c-0.6,0.2-1,0.4-1,0.5s0.5,0.2,1,0.5
		l4.9,2.1c0.6,0.2,1,0.9,1,1.4s-0.4,0.8-1,0.5L19.6,28C19.1,27.8,18.6,27.2,18.6,26.8z"/>
</g>
<g>
	<path d="M30.1,32.6c-0.5,0-0.8-0.5-0.6-1.1l3.4-11.7c0.2-0.6,0.7-1.1,1.3-1.1s0.8,0.5,0.6,1.1l-3.4,11.7
		C31.2,32.1,30.6,32.6,30.1,32.6z"/>
</g>
<g>
	<path d="M45.3,26.8c0,0.5-0.4,1.1-1,1.3l-7.1,3.3c-0.5,0.3-1,0-1-0.5s0.5-1.2,1-1.4l5-2.2c0.6-0.2,1-0.4,1-0.5s-0.5-0.2-1-0.5
		l-5-2.2c-0.6-0.2-1-0.9-1-1.4s0.4-0.8,1-0.5l7.1,3.3C44.9,25.7,45.3,26.3,45.3,26.8z"/>
</g>
</svg>
