<?xml version="1.0" encoding="utf-8"?>
<!-- Generator: Adobe Illustrator 20.0.0, SVG Export Plug-In . SVG Version: 6.00 Build 0)  -->
<svg version="1.1" id="Layer_1" xmlns="http://www.w3.org/2000/svg" xmlns:xlink="http://www.w3.org/1999/xlink" x="0px" y="0px"
	 viewBox="0 0 64 64" style="enable-background:new 0 0 64 64;" xml:space="preserve">
<style type="text/css">
	.st0{fill:none;stroke:#000000;stroke-width:2;stroke-miterlimit:10;}
</style>
<g>
	<path class="st0" d="M1,26c0,1.6,0,4.4,0,6c0,1.7,1.3,4.3,2.8,5.8l0.3,0.3C5.7,39.7,8.8,41,11,41h30.5c2.2,0,5.4,1.1,7.2,2.4
		l9.2,7.1c1.7,1.3,3.6,2.4,4.2,2.4s1-1.8,1-4V33c0-2.2,0-5.8,0-8V9c0-2.2-0.5-4-1-4s-2.4,1.1-4.2,2.4l-9.2,7.1
		c-1.7,1.3-5,2.4-7.2,2.4H11c-2.2,0-5.3,1.3-6.8,2.8l-0.3,0.3C2.3,21.7,1,24.4,1,26z"/>
</g>
<g>
	<path class="st0" d="M19,41l-5.6,14.3C12.7,57.3,13.4,59,15,59s3.9-1.6,4.9-3.5L28,41"/>
</g>
<line class="st0" x1="43" y1="17" x2="43" y2="41"/>
<line class="st0" x1="36" y1="41" x2="36" y2="17"/>
</svg>
