<?xml version="1.0" encoding="utf-8"?>
<!-- Generator: Adobe Illustrator 20.0.0, SVG Export Plug-In . SVG Version: 6.00 Build 0)  -->
<svg version="1.1" id="Layer_1" xmlns="http://www.w3.org/2000/svg" xmlns:xlink="http://www.w3.org/1999/xlink" x="0px" y="0px"
	 viewBox="0 0 64 64" style="enable-background:new 0 0 64 64;" xml:space="preserve">
<style type="text/css">
	.st0{fill:none;stroke:#000000;stroke-width:2;stroke-miterlimit:10;}
</style>
<g>
	<path class="st0" d="M18,26.1L4.8,31.8c-1.5,0.7-1.5,1.7,0,2.3l24.4,9.8c1.5,0.6,4,0.6,5.6,0l24.4-9.8c1.5-0.6,1.5-1.7,0-2.3
		L46,26.1"/>
</g>
<g>
	<path class="st0" d="M18,39.1L4.8,44.8c-1.5,0.7-1.5,1.7,0,2.3l24.4,9.8c1.5,0.6,4,0.6,5.6,0l24.4-9.8c1.5-0.6,1.5-1.7,0-2.3
		L46,39.1"/>
</g>
<g>
	<path class="st0" d="M29.2,30.9c1.5,0.6,4,0.6,5.6,0l24.4-9.8c1.5-0.6,1.5-1.7,0-2.3L34.8,8.2c-1.5-0.7-4-0.7-5.5,0L4.8,18.8
		c-1.5,0.7-1.5,1.7,0,2.3L29.2,30.9z"/>
</g>
</svg>
