<?xml version="1.0" encoding="iso-8859-1"?>
<!-- Generator: Adobe Illustrator 19.0.0, SVG Export Plug-In . SVG Version: 6.00 Build 0)  -->
<svg version="1.1" id="Layer_1" xmlns="http://www.w3.org/2000/svg" xmlns:xlink="http://www.w3.org/1999/xlink" x="0px" y="0px"
	 viewBox="0 0 512 512" style="enable-background:new 0 0 512 512;" xml:space="preserve">
<path style="fill:#F8981D;" d="M439.752,192.699h-89.933c-3.652,0-6.923,2.253-8.229,5.664l-1.493,3.91
	c-0.425,1.128-0.829,2.207-1.218,3.287c-0.451,1.247-0.887,2.497-1.32,3.754l-0.195,0.562c-0.349,0.998-0.696,2.002-1.029,3.004
	c-0.341,1.017-0.661,2.037-0.983,3.058l-0.553,1.74c-0.265,0.831-0.536,1.678-0.791,2.52c-0.332,1.095-0.647,2.199-0.961,3.3
	l-0.569,1.982c-0.172,0.591-0.353,1.214-0.524,1.835l-0.76,2.779c-0.725,2.65-0.174,5.486,1.491,7.672
	c0.194,0.25,0.399,0.485,0.614,0.713c-0.216,0.225-0.421,0.463-0.614,0.714c-1.665,2.183-2.216,5.018-1.491,7.668l0.76,2.779
	c0.171,0.622,0.352,1.245,0.524,1.835l0.569,1.983c0.314,1.103,0.628,2.207,0.961,3.301c0.254,0.842,0.526,1.69,0.791,2.517
	l0.553,1.743c0.323,1.021,0.644,2.041,0.983,3.057c0.334,1.004,0.681,2.006,1.029,3.006l0.195,0.56
	c0.433,1.256,0.869,2.507,1.32,3.754c0.389,1.081,0.793,2.16,1.218,3.289l1.493,3.91c1.305,3.411,4.578,5.662,8.229,5.662h89.933
	c4.866,0,8.809-3.945,8.809-8.81l0,0v-73.94v-0.002C448.56,196.643,444.618,192.699,439.752,192.699z"/>
<path style="opacity:0.19;fill:#202121;enable-background:new    ;" d="M349.819,192.699c-3.652,0-6.923,2.253-8.229,5.664
	l-1.493,3.91c-0.425,1.128-0.829,2.207-1.218,3.287c-0.451,1.247-0.887,2.497-1.32,3.754l-0.195,0.562
	c-0.349,0.998-0.696,2.002-1.029,3.004c-0.341,1.017-0.661,2.037-0.983,3.058l-0.553,1.74c-0.265,0.831-0.536,1.678-0.791,2.52
	c-0.332,1.095-0.647,2.199-0.961,3.3l-0.569,1.982c-0.172,0.591-0.353,1.214-0.524,1.835l-0.76,2.779
	c-0.725,2.65-0.174,5.486,1.491,7.672c0.194,0.25,0.399,0.485,0.614,0.713c-0.216,0.225-0.421,0.463-0.614,0.714
	c-1.665,2.183-2.216,5.018-1.491,7.668l0.76,2.779c0.171,0.622,0.352,1.245,0.524,1.835l0.569,1.983
	c0.314,1.103,0.628,2.207,0.961,3.301c0.254,0.842,0.526,1.69,0.791,2.517l0.553,1.743c0.323,1.021,0.644,2.041,0.983,3.057
	c0.334,1.004,0.681,2.006,1.029,3.006l0.195,0.56c0.433,1.256,0.869,2.507,1.32,3.754c0.389,1.081,0.793,2.16,1.218,3.289
	l1.493,3.91c1.305,3.411,4.578,5.662,8.229,5.662h25.892c-0.111-0.337-0.231-0.68-0.341-1.015c-0.39-1.181-0.77-2.364-1.15-3.558
	l-0.549-1.718c-0.857-2.678-2.918-4.711-5.464-5.611c-0.047-0.222-0.096-0.444-0.142-0.663l-0.222-1.064
	c-0.443-2.101-0.876-4.204-1.295-6.307l-0.203-1.012c-0.13-0.647-0.259-1.293-0.384-1.934c-0.55-2.841-1.08-5.682-1.587-8.506
	l-0.706-3.967h9.996c4.865,0,8.809-3.944,8.809-8.808v-0.002V192.7h-32.655V192.699z"/>
<g>
	<path style="fill:#773F07;" d="M371.761,193.51v32.14c0,4.562,3.699,8.259,8.258,8.259c4.562,0,8.259-3.698,8.259-8.259v-32.14
		c0-0.273-0.016-0.545-0.041-0.81h-16.435C371.775,192.965,371.761,193.236,371.761,193.51z"/>
	<path style="fill:#773F07;" d="M403.843,193.51v19.277c0,4.561,3.699,8.258,8.258,8.258c4.561,0,8.259-3.695,8.259-8.258V193.51
		c0-0.273-0.016-0.545-0.041-0.81h-16.435C403.857,192.965,403.843,193.236,403.843,193.51z"/>
</g>
<path style="fill:#FCCC9A;" d="M107.866,145.871l1.456,9.311h220.423l1.457-9.314c1.195-7.659,2.78-15.401,4.714-23.016
	l2.692-10.606l-10.593-2.759c-33.054-8.6-70.569-13.144-108.484-13.144c-37.916,0-75.428,4.545-108.483,13.142l-10.593,2.759
	l2.696,10.606C105.086,130.469,106.672,138.213,107.866,145.871z"/>
<path style="opacity:0.19;fill:#202121;enable-background:new    ;" d="M107.866,145.871l1.456,9.311h33.588l-1.457-9.311
	c-1.195-7.656-2.779-15.402-4.715-23.022l-2.062-8.128l-2.552-7.906c-0.217-0.669-0.437-1.339-0.658-2.007
	c-6.963,1.395-13.783,2.95-20.418,4.676l-10.593,2.759l2.696,10.606C105.086,130.469,106.672,138.213,107.866,145.871z"/>
<path style="fill:#6699CC;" d="M86.318,75.224c1.457,3.2,4.629,5.16,8.017,5.16c0.713,0,1.435-0.087,2.155-0.268l1.781-0.45
	c37.055-9.347,78.985-14.288,121.259-14.288s84.206,4.939,121.264,14.288l1.749,0.441c4.068,1.023,8.297-0.964,10.104-4.752
	l0.777-1.627c0.02-0.042,0.04-0.083,0.059-0.127l0.049-0.105c15.02-32.883,16.368-53.652,15.836-63.105l-0.117-2.077
	C368.987,3.647,365.128,0,360.455,0H78.611c-4.673,0-8.532,3.651-8.796,8.314l-0.117,2.079c-0.531,9.457,0.819,30.228,15.832,63.095
	L86.318,75.224z"/>
<path style="opacity:0.19;fill:#202121;enable-background:new    ;" d="M119.736,74.852l-0.619-1.364
	c-15.013-32.867-16.363-53.639-15.832-63.095l0.119-2.079C103.666,3.651,107.526,0,112.198,0H78.611
	c-4.673,0-8.532,3.651-8.796,8.314l-0.117,2.079c-0.531,9.457,0.819,30.228,15.832,63.095l0.789,1.736
	c1.457,3.2,4.629,5.16,8.017,5.16c0.713,0,1.435-0.087,2.155-0.268l1.781-0.45C105.263,77.902,112.428,76.298,119.736,74.852z"/>
<g>
	<path style="fill:#FCCC9A;" d="M125.582,272.017l0.549-1.715c0.856-2.685,2.922-4.726,5.474-5.621
		c1.349-6.3,2.618-12.678,3.757-19.003l1.731-9.639l198.244-1.383l-0.042-0.234l-231.79,1.616l-1.732,9.639
		c-1.23,6.841-2.602,13.755-4.077,20.556l-3.258,15.03h28.064C123.563,278.184,124.597,275.097,125.582,272.017z"/>
	<path style="fill:#FCCC9A;" d="M341.374,266.214c-0.159-0.732-0.313-1.463-0.468-2.195l-0.222-1.063
		c-0.443-2.102-0.875-4.202-1.295-6.307l-0.203-1.011c-0.13-0.646-0.261-1.294-0.386-1.933c-0.551-2.843-1.082-5.682-1.587-8.509
		l-1.921-10.776l-231.79,1.616l-1.732,9.639c-1.23,6.841-2.602,13.755-4.077,20.556l-3.258,15.03h236.252l13.95-0.038
		L341.374,266.214z"/>
</g>
<path style="opacity:0.19;fill:#202121;enable-background:new    ;" d="M133.621,243.402l1.36-7.582l-31.477,0.219l-1.732,9.639
	c-1.23,6.841-2.602,13.755-4.077,20.556l-3.258,15.03h31.378l3.466-15.991C130.851,258.037,132.309,250.68,133.621,243.402z"/>
<path style="fill:#F8981D;" d="M346.504,149.673H72.248c-4.864,0-8.809,3.945-8.809,8.809v0.003v73.94l0,0
	c0,4.864,3.945,8.808,8.809,8.808h274.256c4.864,0,8.809-3.944,8.809-8.808l0,0v-73.94v-0.003
	C355.313,153.618,351.368,149.673,346.504,149.673z"/>
<path style="opacity:0.19;fill:#202121;enable-background:new    ;" d="M86.946,179.637v-0.002c0-4.865,3.943-8.809,8.809-8.809
	h259.559v-12.342v-0.003c0-4.864-3.945-8.809-8.809-8.809H72.248c-4.864,0-8.809,3.945-8.809,8.809v0.003v73.94l0,0
	c0,4.864,3.945,8.808,8.809,8.808h14.698V179.637z"/>
<path style="fill:#6699CC;" d="M355.551,296.104c-2.686-6.974-5.153-13.882-7.341-20.533c-0.389-1.181-0.769-2.364-1.15-3.557
	l-0.549-1.716c-1.168-3.65-4.559-6.125-8.389-6.125H100.932c-3.831,0-7.225,2.478-8.392,6.13l-0.546,1.715
	c-2.575,8.057-5.426,16.159-8.479,24.085l-1.489,3.864c-1.043,2.71-0.684,5.759,0.96,8.151c1.643,2.393,4.36,3.823,7.263,3.823
	h258.57c2.901,0,5.618-1.43,7.261-3.823c1.643-2.392,2.001-5.441,0.958-8.151L355.551,296.104z"/>
<path id="SVGCleanerId_0" style="fill:#485D6D;" d="M92.622,90.228l0.867,2.233c0.426,1.12,0.84,2.236,1.248,3.346l0.489,1.334
	c0.377,1.031,0.74,2.065,1.098,3.094l0.585,1.675c0.295,0.869,0.587,1.74,0.875,2.61c0.253,0.765,0.506,1.53,0.753,2.296
	l3.456,10.711l10.072-2.627c32.685-8.539,69.847-13.053,107.467-13.053c37.624,0,74.787,4.515,107.469,13.053l10.056,2.625
	l4.008-12.337c0.306-0.94,0.613-1.878,0.907-2.745l0.303-0.87c0.462-1.342,0.928-2.684,1.413-4.022l0.047-0.129
	c0.555-1.538,1.125-3.081,1.699-4.583l0.098-0.254c0.525-1.38,1.059-2.759,1.611-4.146l4.677-11.751l-12.283-3.016
	c-36.797-9.028-78.294-13.799-120.002-13.799c-41.706,0-83.201,4.771-120.001,13.799l-12.284,3.016l4.681,11.751
	C92.163,89.032,92.389,89.622,92.622,90.228z"/>
<g>
	<path id="SVGCleanerId_0_1_" style="fill:#485D6D;" d="M92.622,90.228l0.867,2.233c0.426,1.12,0.84,2.236,1.248,3.346l0.489,1.334
		c0.377,1.031,0.74,2.065,1.098,3.094l0.585,1.675c0.295,0.869,0.587,1.74,0.875,2.61c0.253,0.765,0.506,1.53,0.753,2.296
		l3.456,10.711l10.072-2.627c32.685-8.539,69.847-13.053,107.467-13.053c37.624,0,74.787,4.515,107.469,13.053l10.056,2.625
		l4.008-12.337c0.306-0.94,0.613-1.878,0.907-2.745l0.303-0.87c0.462-1.342,0.928-2.684,1.413-4.022l0.047-0.129
		c0.555-1.538,1.125-3.081,1.699-4.583l0.098-0.254c0.525-1.38,1.059-2.759,1.611-4.146l4.677-11.751l-12.283-3.016
		c-36.797-9.028-78.294-13.799-120.002-13.799c-41.706,0-83.201,4.771-120.001,13.799l-12.284,3.016l4.681,11.751
		C92.163,89.032,92.389,89.622,92.622,90.228z"/>
</g>
<g>
	<path style="opacity:0.19;fill:#202121;enable-background:new    ;" d="M115.943,307.019c-1.077-2.187-1.217-4.742-0.327-7.054
		l1.488-3.864c3.051-7.925,5.904-16.028,8.477-24.085l0.549-1.715c0.856-2.685,2.922-4.726,5.474-5.621
		c0.037-0.168,0.07-0.341,0.107-0.509h-30.778c-3.831,0-7.225,2.478-8.392,6.13l-0.546,1.715
		c-2.575,8.057-5.426,16.159-8.479,24.085l-1.489,3.864c-1.043,2.71-0.684,5.759,0.96,8.151c1.643,2.393,4.36,3.823,7.263,3.823
		h20.115C111.421,309.525,113.479,307.744,115.943,307.019z"/>
	<path style="opacity:0.19;fill:#202121;enable-background:new    ;" d="M98.537,106.815l3.456,10.711l10.072-2.627
		c6.851-1.792,13.907-3.393,21.112-4.823l-1.052-3.262c-0.247-0.766-0.5-1.531-0.753-2.296c-0.289-0.87-0.577-1.741-0.876-2.61
		l-0.584-1.675c-0.359-1.028-0.722-2.063-1.097-3.094l-0.49-1.334c-0.408-1.111-0.821-2.226-1.249-3.346l-0.865-2.233
		c-0.233-0.607-0.462-1.196-0.698-1.789l-4.611-11.584c-0.379-0.502-0.725-1.038-0.994-1.631l-0.791-1.736
		c-0.585-1.283-1.142-2.538-1.687-3.784c-6.071,1.218-12.049,2.533-17.9,3.968l-12.284,3.016l4.681,11.751
		c0.236,0.594,0.463,1.183,0.696,1.789l0.867,2.233c0.426,1.12,0.84,2.236,1.248,3.346l0.489,1.334
		c0.377,1.031,0.74,2.065,1.098,3.094l0.585,1.675c0.295,0.869,0.587,1.74,0.875,2.61C98.037,105.284,98.29,106.05,98.537,106.815z"
		/>
</g>
<path style="fill:#485D6D;" d="M363.002,313.74l-0.54-1.418c-1.301-3.414-4.576-5.671-8.23-5.671H84.836
	c-3.653,0-6.929,2.257-8.231,5.671l-0.54,1.42c-24.315,63.797-7.41,146.564,4.832,190.225l0.452,1.606
	c1.066,3.799,4.533,6.426,8.479,6.426h123.648c2.345,0,4.476-0.916,6.057-2.411c1.577,1.495,3.711,2.411,6.057,2.411h123.651
	c3.948,0,7.416-2.628,8.481-6.43l0.45-1.606C370.409,460.306,387.314,377.542,363.002,313.74z"/>
<g style="opacity:0.19;">
	<path style="fill:#202121;" d="M114.935,505.574l-0.451-1.606c-12.242-43.661-29.149-126.428-4.833-190.225l0.541-1.42
		c0.998-2.614,3.156-4.539,5.75-5.303c-0.061-0.121-0.106-0.245-0.159-0.368H84.836c-3.653,0-6.929,2.257-8.231,5.671l-0.54,1.42
		c-24.315,63.797-7.41,146.564,4.832,190.225l0.452,1.606c1.066,3.799,4.533,6.426,8.479,6.426h33.589
		C119.468,512,116.004,509.373,114.935,505.574z"/>
	<path style="fill:#202121;" d="M247.064,512h12.111c-2.346,0-4.476-0.916-6.057-2.411C251.541,511.084,249.408,512,247.064,512z"/>
</g>
<path style="opacity:0.19;fill:#202121;enable-background:new    ;" d="M247.483,412.718c3.168-3.26,3.104-8.47-0.146-11.652
	c-3.26-3.192-8.489-3.136-11.68,0.121c-0.599,0.61-9.282,9.667-16.12,25.792c-6.834-16.123-15.52-25.179-16.118-25.792
	c-3.182-3.249-8.379-3.302-11.64-0.132c-3.262,3.165-3.338,8.388-0.185,11.663c0.197,0.205,19.686,20.846,19.686,55.299V512h2.195
	c2.345,0,4.476-0.916,6.057-2.411c1.577,1.495,3.711,2.411,6.057,2.411h2.21v-43.983
	C227.797,433.607,247.236,412.977,247.483,412.718z"/>
<g>
	<path style="fill:#773F07;" d="M86.978,149.673v31.205c0,4.561,3.699,8.258,8.26,8.258c4.561,0,8.258-3.698,8.258-8.258v-31.205
		H86.978z"/>
	<path style="fill:#773F07;" d="M119.06,149.673v18.343c0,4.561,3.699,8.258,8.26,8.258c4.56,0,8.257-3.698,8.257-8.258v-18.343
		H119.06z"/>
	<path style="fill:#773F07;" d="M151.142,149.673v31.205c0,4.561,3.698,8.258,8.259,8.258c4.561,0,8.258-3.698,8.258-8.258v-31.205
		H151.142z"/>
	<path style="fill:#773F07;" d="M183.224,149.673v18.343c0,4.561,3.698,8.258,8.259,8.258c4.559,0,8.258-3.698,8.258-8.258v-18.343
		H183.224z"/>
	<path style="fill:#773F07;" d="M215.306,149.673v31.205c0,4.561,3.698,8.258,8.259,8.258c4.559,0,8.258-3.698,8.258-8.258v-31.205
		H215.306z"/>
	<path style="fill:#773F07;" d="M247.388,149.673v18.343c0,4.561,3.698,8.258,8.259,8.258c4.561,0,8.258-3.698,8.258-8.258v-18.343
		H247.388z"/>
	<path style="fill:#773F07;" d="M279.469,149.673v31.205c0,4.561,3.698,8.258,8.259,8.258s8.258-3.698,8.258-8.258v-31.205H279.469z
		"/>
	<path style="fill:#773F07;" d="M311.551,149.673v18.343c0,4.561,3.698,8.258,8.259,8.258s8.258-3.698,8.258-8.258v-18.343H311.551z
		"/>
</g>
<g>
</g>
<g>
</g>
<g>
</g>
<g>
</g>
<g>
</g>
<g>
</g>
<g>
</g>
<g>
</g>
<g>
</g>
<g>
</g>
<g>
</g>
<g>
</g>
<g>
</g>
<g>
</g>
<g>
</g>
</svg>
